<?xml version="1.0" encoding="UTF-8" standalone="no"?>
<svg
   version="1.0"
   width="1104pt"
   height="1162pt"
   viewBox="0 0 1104 1162"
   preserveAspectRatio="xMidYMid"
   id="svg18"
   xmlns="http://www.w3.org/2000/svg"
   xmlns:svg="http://www.w3.org/2000/svg">
  <defs
     id="defs18" />
  <metadata
     id="metadata1">
Created by potrace 1.16, written by Peter Selinger 2001-2019
</metadata>
  <g
     transform="matrix(0.1,0,0,-0.1,-472,1576)"
     fill="#718264"
     stroke="none"
     id="g18">
    <path
       d="m 7000,15750 c 0,-5 -22,-10 -50,-10 -27,0 -50,-4 -50,-10 0,-5 -13,-10 -30,-10 -16,0 -30,-4 -30,-10 0,-5 -9,-10 -20,-10 -11,0 -20,-4 -20,-10 0,-5 -7,-10 -15,-10 -27,0 -145,-127 -145,-155 0,-14 -4,-25 -10,-25 -5,0 -10,-13 -10,-30 0,-16 -4,-30 -10,-30 -7,0 -10,-1080 -10,-3220 0,-2140 3,-3220 10,-3220 6,0 10,-18 10,-40 0,-22 5,-40 10,-40 6,0 10,-7 10,-16 0,-9 13,-29 30,-44 17,-15 30,-35 30,-44 0,-9 7,-16 16,-16 9,0 29,-13 44,-30 15,-16 35,-30 44,-30 9,0 16,-4 16,-10 0,-5 14,-10 30,-10 17,0 30,-4 30,-10 0,-7 1120,-10 3340,-10 2220,0 3340,3 3340,10 0,6 14,10 30,10 17,0 30,5 30,10 0,6 9,10 20,10 11,0 20,5 20,10 0,6 8,10 18,10 10,0 24,9 32,20 8,11 22,20 32,20 10,0 18,7 18,16 0,9 14,29 30,44 17,15 30,35 30,44 0,9 5,16 10,16 6,0 10,9 10,20 0,11 5,20 10,20 6,0 10,18 10,40 0,22 5,40 10,40 7,0 10,1077 10,3210 0,2133 -3,3210 -10,3210 -5,0 -10,14 -10,30 0,17 -4,30 -10,30 -5,0 -10,9 -10,20 0,11 -4,20 -10,20 -5,0 -10,7 -10,15 0,20 -85,105 -105,105 -8,0 -15,5 -15,10 0,6 -9,10 -20,10 -11,0 -20,5 -20,10 0,6 -13,10 -30,10 -16,0 -30,5 -30,10 0,6 -18,10 -40,10 -22,0 -40,5 -40,10 0,7 -1093,10 -3260,10 -2167,0 -3260,-3 -3260,-10 z m 6440,-380 c 0,-5 7,-10 16,-10 20,0 44,-24 44,-44 0,-9 5,-16 10,-16 7,0 10,-1033 10,-3080 0,-2047 -3,-3080 -10,-3080 -5,0 -10,-12 -10,-26 0,-35 -22,-54 -64,-54 -20,0 -36,-4 -36,-10 0,-16 -477,-13 -484,3 -5,9 -7,10 -12,0 -7,-16 -584,-19 -584,-3 0,6 -9,10 -20,10 -11,0 -20,-4 -20,-10 0,-6 -30,-10 -70,-10 -40,0 -70,4 -70,10 0,6 -30,10 -70,10 -40,0 -70,-4 -70,-10 0,-6 -140,-10 -400,-10 -260,0 -400,4 -400,10 0,6 -9,10 -20,10 -11,0 -20,-4 -20,-10 0,-16 -1237,-14 -1244,3 -5,9 -7,10 -12,0 -8,-19 -1260,-19 -1268,0 -5,10 -7,10 -12,0 -3,-7 -14,-13 -24,-13 -10,0 -21,6 -24,13 -5,10 -7,10 -12,0 -7,-17 -1484,-19 -1484,-3 0,6 -11,10 -25,10 -29,0 -75,40 -75,65 0,8 -4,15 -10,15 -16,0 -14,6097 3,6103 9,4 8,8 -3,17 -11,9 -12,13 -2,17 6,2 12,16 12,29 0,14 10,36 23,49 l 22,24 h 3208 c 2132,1 3207,-2 3207,-9 z"
       id="path1" />
    <path
       d="m 10180,14590 c 0,-5 -9,-10 -20,-10 -11,0 -20,-4 -20,-10 0,-5 -13,-10 -28,-10 -16,0 -34,-8 -42,-20 -8,-11 -21,-20 -30,-20 -9,0 -22,-9 -30,-20 -8,-11 -22,-20 -32,-20 -10,0 -18,-4 -18,-10 0,-5 -9,-10 -20,-10 -11,0 -20,-4 -20,-10 0,-5 -9,-10 -20,-10 -11,0 -20,-4 -20,-10 0,-5 -8,-10 -18,-10 -10,0 -24,-9 -32,-20 -8,-11 -22,-20 -32,-20 -10,0 -18,-4 -18,-10 0,-5 -9,-10 -20,-10 -11,0 -20,-4 -20,-10 0,-5 -8,-10 -18,-10 -10,0 -24,-9 -32,-20 -8,-11 -22,-20 -32,-20 -10,0 -18,-4 -18,-10 0,-5 -9,-10 -20,-10 -11,0 -20,-4 -20,-10 0,-5 -8,-10 -18,-10 -10,0 -24,-9 -32,-20 -8,-11 -22,-20 -32,-20 -10,0 -18,-4 -18,-10 0,-5 -8,-10 -18,-10 -10,0 -24,-9 -32,-20 -8,-11 -22,-20 -32,-20 -10,0 -18,-4 -18,-10 0,-5 -9,-10 -20,-10 -11,0 -20,-4 -20,-10 0,-5 -8,-10 -18,-10 -10,0 -24,-9 -32,-20 -8,-11 -22,-20 -32,-20 -10,0 -18,-4 -18,-10 0,-5 -8,-10 -18,-10 -10,0 -24,-9 -32,-20 -8,-11 -22,-20 -32,-20 -10,0 -18,-4 -18,-10 0,-5 -8,-10 -18,-10 -10,0 -24,-9 -32,-20 -8,-11 -22,-20 -32,-20 -10,0 -18,-4 -18,-10 0,-5 -9,-10 -20,-10 -11,0 -20,-4 -20,-10 0,-5 -8,-10 -18,-10 -10,0 -24,-9 -32,-20 -8,-11 -22,-20 -32,-20 -10,0 -18,-4 -18,-10 0,-5 -9,-10 -20,-10 -11,0 -20,-4 -20,-10 0,-5 -9,-10 -20,-10 -11,0 -20,-4 -20,-10 0,-5 -8,-10 -18,-10 -10,0 -24,-9 -32,-20 -8,-11 -22,-20 -32,-20 -10,0 -18,-4 -18,-10 0,-5 -9,-10 -20,-10 -11,0 -20,-4 -20,-10 0,-5 -8,-10 -18,-10 -10,0 -24,-9 -32,-20 -8,-11 -22,-20 -32,-20 -10,0 -18,-4 -18,-10 0,-5 -8,-10 -18,-10 -10,0 -24,-9 -32,-20 -8,-11 -22,-20 -32,-20 -10,0 -18,-4 -18,-10 0,-5 -9,-10 -20,-10 -11,0 -20,-4 -20,-10 0,-5 -8,-10 -18,-10 -10,0 -24,-9 -32,-20 -8,-11 -22,-20 -32,-20 -10,0 -18,-4 -18,-10 0,-5 -9,-10 -20,-10 -11,0 -20,-4 -20,-10 0,-5 -8,-10 -18,-10 -10,0 -24,-9 -32,-20 -8,-11 -22,-20 -32,-20 -10,0 -18,-4 -18,-10 0,-5 -8,-10 -18,-10 -10,0 -24,-9 -32,-20 -8,-11 -22,-20 -32,-20 -10,0 -18,-4 -18,-10 0,-5 -9,-10 -20,-10 -11,0 -20,-4 -20,-10 0,-5 -9,-10 -20,-10 -11,0 -20,-4 -20,-10 0,-5 -8,-10 -18,-10 -10,0 -24,-9 -32,-20 -8,-11 -22,-20 -32,-20 -10,0 -18,-4 -18,-10 0,-5 -8,-10 -18,-10 -10,0 -24,-9 -32,-20 -8,-11 -20,-20 -28,-20 -18,0 -42,-25 -42,-44 0,-9 -4,-16 -10,-16 -6,0 -10,-63 -10,-170 0,-107 4,-170 10,-170 6,0 10,-9 10,-20 0,-22 15,-27 24,-7 5,10 7,10 12,0 4,-10 297,-13 1415,-13 h 1409 v -1326 c 0,-1135 -2,-1327 -14,-1340 -22,-21 -2450,-21 -2472,0 -12,12 -14,136 -14,826 0,690 -2,814 -14,826 -12,11 -50,14 -180,14 -159,0 -166,-1 -166,-20 0,-11 -4,-20 -10,-20 -7,0 -10,-330 -10,-970 0,-640 3,-970 10,-970 6,0 10,-9 10,-20 0,-20 7,-20 2410,-20 2403,0 2410,0 2410,20 0,11 5,20 10,20 7,0 10,570 10,1690 0,1120 -3,1690 -10,1690 -5,0 -10,7 -10,16 0,19 -24,44 -42,44 -8,0 -20,9 -28,20 -8,11 -22,20 -32,20 -10,0 -18,5 -18,10 0,6 -9,10 -20,10 -11,0 -20,5 -20,10 0,6 -9,10 -20,10 -11,0 -20,5 -20,10 0,6 -9,10 -20,10 -11,0 -20,5 -20,10 0,6 -8,10 -18,10 -10,0 -24,9 -32,20 -8,11 -22,20 -32,20 -10,0 -18,5 -18,10 0,6 -9,10 -20,10 -11,0 -20,5 -20,10 0,6 -8,10 -18,10 -10,0 -24,9 -32,20 -8,11 -22,20 -32,20 -10,0 -18,5 -18,10 0,6 -9,10 -20,10 -11,0 -20,5 -20,10 0,6 -8,10 -18,10 -10,0 -24,9 -32,20 -8,11 -22,20 -32,20 -10,0 -18,5 -18,10 0,6 -9,10 -20,10 -11,0 -20,5 -20,10 0,6 -8,10 -18,10 -10,0 -24,9 -32,20 -8,11 -22,20 -32,20 -10,0 -18,5 -18,10 0,6 -9,10 -20,10 -11,0 -20,5 -20,10 0,6 -9,10 -20,10 -11,0 -20,5 -20,10 0,6 -8,10 -18,10 -10,0 -24,9 -32,20 -8,11 -22,20 -32,20 -10,0 -18,5 -18,10 0,6 -9,10 -20,10 -11,0 -20,5 -20,10 0,6 -8,10 -18,10 -10,0 -24,9 -32,20 -8,11 -22,20 -32,20 -10,0 -18,5 -18,10 0,6 -8,10 -18,10 -10,0 -24,9 -32,20 -8,11 -22,20 -32,20 -10,0 -18,5 -18,10 0,6 -9,10 -20,10 -11,0 -20,5 -20,10 0,6 -9,10 -20,10 -11,0 -20,5 -20,10 0,6 -9,10 -20,10 -11,0 -20,5 -20,10 0,6 -8,10 -18,10 -10,0 -24,9 -32,20 -8,11 -22,20 -32,20 -10,0 -18,5 -18,10 0,6 -9,10 -20,10 -11,0 -20,5 -20,10 0,6 -8,10 -18,10 -10,0 -24,9 -32,20 -8,11 -22,20 -32,20 -10,0 -18,5 -18,10 0,6 -9,10 -20,10 -11,0 -20,5 -20,10 0,6 -8,10 -18,10 -10,0 -24,9 -32,20 -8,11 -22,20 -32,20 -10,0 -18,5 -18,10 0,6 -8,10 -18,10 -10,0 -24,9 -32,20 -8,11 -22,20 -32,20 -10,0 -18,5 -18,10 0,6 -9,10 -20,10 -11,0 -20,5 -20,10 0,6 -9,10 -20,10 -11,0 -20,5 -20,10 0,6 -8,10 -18,10 -10,0 -24,9 -32,20 -8,11 -22,20 -32,20 -10,0 -18,5 -18,10 0,6 -9,10 -20,10 -11,0 -20,5 -20,10 0,6 -8,10 -18,10 -10,0 -24,9 -32,20 -8,11 -22,20 -32,20 -10,0 -18,5 -18,10 0,6 -9,10 -20,10 -11,0 -20,5 -20,10 0,6 -8,10 -18,10 -10,0 -24,9 -32,20 -8,11 -22,20 -32,20 -10,0 -18,5 -18,10 0,6 -9,10 -20,10 -11,0 -20,5 -20,10 0,6 -9,10 -20,10 -11,0 -20,5 -20,10 0,6 -9,10 -20,10 -11,0 -20,5 -20,10 0,6 -22,10 -50,10 -27,0 -50,-4 -50,-10 z m 80,-400 c 0,-5 9,-10 20,-10 11,0 20,-4 20,-10 0,-5 8,-10 18,-10 10,0 24,-9 32,-20 8,-11 22,-20 32,-20 10,0 18,-4 18,-10 0,-5 9,-10 20,-10 11,0 20,-4 20,-10 0,-5 8,-10 18,-10 10,0 24,-9 32,-20 8,-11 22,-20 32,-20 10,0 18,-4 18,-10 0,-5 8,-10 18,-10 10,0 24,-9 32,-20 8,-11 22,-20 32,-20 10,0 18,-4 18,-10 0,-5 9,-10 20,-10 11,0 20,-4 20,-10 0,-5 8,-10 18,-10 10,0 24,-9 32,-20 8,-11 22,-20 32,-20 10,0 18,-4 18,-10 0,-5 8,-10 18,-10 10,0 24,-9 32,-20 8,-11 22,-20 32,-20 10,0 18,-4 18,-10 0,-5 9,-10 20,-10 11,0 20,-4 20,-10 0,-5 8,-10 18,-10 10,0 24,-9 32,-20 8,-11 22,-20 32,-20 10,0 18,-4 18,-10 0,-5 9,-10 20,-10 11,0 20,-4 20,-10 0,-5 8,-10 18,-10 10,0 24,-9 32,-20 8,-11 22,-20 32,-20 10,0 18,-4 18,-10 0,-5 9,-10 20,-10 11,0 20,-4 20,-10 0,-5 9,-10 20,-10 11,0 20,-4 20,-10 0,-5 8,-10 18,-10 10,0 24,-9 32,-20 8,-11 22,-20 32,-20 10,0 18,-4 18,-10 0,-5 8,-10 18,-10 10,0 24,-9 32,-20 8,-11 22,-20 32,-20 10,0 18,-4 18,-10 0,-5 9,-10 20,-10 11,0 20,-4 20,-10 0,-5 8,-10 18,-10 10,0 24,-9 32,-20 8,-11 26,-20 40,-20 14,0 32,-9 40,-20 8,-11 22,-20 32,-20 10,0 18,-4 18,-10 0,-5 8,-10 18,-10 10,0 24,-9 32,-20 8,-11 22,-20 32,-20 10,0 18,-4 18,-10 0,-5 9,-10 20,-10 11,0 20,-4 20,-10 0,-5 9,-10 20,-10 11,0 20,-4 20,-10 0,-5 8,-10 18,-10 10,0 24,-9 32,-20 8,-11 22,-20 32,-20 10,0 18,-4 18,-10 0,-5 9,-10 20,-10 11,0 20,-4 20,-10 0,-5 8,-10 18,-10 10,0 24,-9 32,-20 8,-11 22,-20 32,-20 10,0 18,-4 18,-10 0,-5 9,-10 20,-10 11,0 20,-4 20,-10 0,-5 8,-10 18,-10 10,0 24,-9 32,-20 8,-11 22,-20 32,-20 10,0 18,-4 18,-10 0,-5 7,-10 16,-10 44,0 44,6 44,-634 v -606 h -220 c -140,0 -220,-4 -220,-10 0,-6 -33,-10 -80,-10 -47,0 -80,4 -80,10 0,6 -70,10 -190,10 -120,0 -190,-4 -190,-10 0,-5 -18,-10 -40,-10 -22,0 -40,5 -40,10 0,6 -18,10 -40,10 -22,0 -40,-4 -40,-10 0,-15 -70,-12 -86,4 -12,12 -14,117 -14,680 0,659 0,666 -20,666 -11,0 -20,5 -20,10 0,7 -427,10 -1260,10 -693,0 -1260,2 -1260,5 0,13 50,55 65,55 8,0 15,5 15,10 0,6 9,10 20,10 11,0 20,5 20,10 0,6 13,10 28,10 16,0 34,8 42,20 8,11 22,20 32,20 10,0 18,5 18,10 0,6 8,10 18,10 10,0 24,9 32,20 8,11 22,20 32,20 10,0 18,5 18,10 0,6 8,10 18,10 10,0 24,9 32,20 8,11 22,20 32,20 10,0 18,5 18,10 0,6 8,10 18,10 10,0 24,9 32,20 8,11 22,20 32,20 10,0 18,5 18,10 0,6 9,10 20,10 11,0 20,5 20,10 0,6 8,10 18,10 10,0 24,9 32,20 8,11 22,20 32,20 10,0 18,5 18,10 0,6 8,10 18,10 10,0 24,9 32,20 8,11 22,20 32,20 10,0 18,5 18,10 0,6 9,10 20,10 11,0 20,5 20,10 0,6 9,10 20,10 11,0 20,5 20,10 0,6 8,10 18,10 10,0 24,9 32,20 8,11 22,20 32,20 10,0 18,5 18,10 0,6 9,10 20,10 11,0 20,5 20,10 0,6 9,10 20,10 11,0 20,5 20,10 0,6 8,10 18,10 10,0 24,9 32,20 8,11 22,20 32,20 10,0 18,5 18,10 0,6 8,10 18,10 10,0 24,9 32,20 8,11 22,20 32,20 10,0 18,5 18,10 0,6 8,10 18,10 10,0 24,9 32,20 8,11 22,20 32,20 10,0 18,5 18,10 0,6 9,10 20,10 11,0 20,5 20,10 0,6 8,10 18,10 10,0 24,9 32,20 8,11 22,20 32,20 10,0 18,5 18,10 0,6 9,10 20,10 11,0 20,5 20,10 0,6 8,10 18,10 10,0 24,9 32,20 8,11 22,20 32,20 10,0 18,5 18,10 0,6 9,10 20,10 11,0 20,5 20,10 0,6 8,10 18,10 10,0 24,9 32,20 15,21 70,28 70,10 z m 2020,-3376 c 0,-546 -2,-648 -14,-660 -12,-12 -107,-14 -610,-14 h -596 v 130 c 0,80 -4,130 -10,130 -16,0 -14,977 3,984 10,5 10,7 0,12 -7,3 -13,12 -13,20 0,44 -7,43 633,44 h 607 z"
       id="path2" />
    <path
       d="m 5060,7650 c 0,-5 -13,-10 -30,-10 -16,0 -30,-4 -30,-10 0,-5 -9,-10 -20,-10 -11,0 -20,-4 -20,-10 0,-5 -8,-10 -18,-10 -10,0 -24,-9 -32,-20 -8,-11 -20,-20 -28,-20 -17,0 -62,-45 -62,-62 0,-8 -9,-20 -20,-28 -11,-8 -20,-22 -20,-32 0,-10 -4,-18 -10,-18 -5,0 -10,-13 -10,-30 0,-16 -4,-30 -10,-30 -5,0 -10,-18 -10,-40 0,-22 -4,-40 -10,-40 -5,0 -10,-13 -10,-30 0,-16 5,-30 10,-30 6,0 10,-18 10,-40 0,-22 5,-40 10,-40 6,0 10,-9 10,-20 0,-11 5,-20 10,-20 6,0 10,-9 10,-20 0,-11 5,-20 10,-20 6,0 10,-7 10,-15 0,-19 104,-125 123,-125 7,0 19,-9 27,-20 8,-11 22,-20 32,-20 10,0 18,-4 18,-10 0,-5 9,-10 20,-10 11,0 20,-4 20,-10 0,-5 9,-10 20,-10 11,0 20,-4 20,-10 0,-5 14,-10 30,-10 17,0 30,-4 30,-10 0,-5 9,-10 20,-10 11,0 20,-4 20,-10 0,-5 9,-10 20,-10 11,0 20,-4 20,-10 0,-5 9,-10 20,-10 11,0 20,-4 20,-10 0,-5 9,-10 20,-10 11,0 20,-4 20,-10 0,-5 8,-10 18,-10 10,0 24,-9 32,-20 8,-11 20,-20 28,-20 18,0 82,-66 82,-85 0,-8 5,-15 10,-15 6,0 10,-33 10,-80 0,-47 -4,-80 -10,-80 -5,0 -10,-7 -10,-15 0,-20 -85,-105 -105,-105 -8,0 -15,-4 -15,-10 0,-6 -50,-10 -130,-10 -80,0 -130,4 -130,10 0,6 -9,10 -20,10 -11,0 -20,5 -20,10 0,6 -9,10 -20,10 -11,0 -20,5 -20,10 0,6 -7,10 -15,10 -19,0 -105,84 -105,103 0,7 -9,19 -20,27 -11,8 -20,22 -20,32 0,10 -4,18 -10,18 -5,0 -10,7 -10,16 0,26 -26,44 -64,44 h -36 v -155 -156 l 35,-34 c 21,-22 44,-35 60,-35 14,0 25,-4 25,-10 0,-5 18,-10 40,-10 22,0 40,-4 40,-10 0,-5 23,-10 50,-10 28,0 50,-4 50,-10 0,-6 60,-10 160,-10 100,0 160,4 160,10 0,6 18,10 40,10 22,0 40,5 40,10 0,6 9,10 20,10 11,0 20,5 20,10 0,6 9,10 20,10 11,0 20,5 20,10 0,6 9,10 20,10 11,0 20,5 20,10 0,6 7,10 15,10 20,0 105,85 105,105 0,8 5,15 10,15 6,0 10,9 10,20 0,11 5,20 10,20 6,0 10,14 10,30 0,17 5,30 10,30 6,0 10,40 10,100 0,60 -4,100 -10,100 -5,0 -10,14 -10,30 0,17 -4,30 -10,30 -5,0 -10,8 -10,18 0,10 -9,24 -20,32 -11,8 -20,20 -20,28 0,17 -65,82 -82,82 -8,0 -20,9 -28,20 -8,11 -22,20 -32,20 -10,0 -18,5 -18,10 0,6 -9,10 -20,10 -11,0 -20,5 -20,10 0,6 -9,10 -20,10 -11,0 -20,5 -20,10 0,6 -9,10 -20,10 -11,0 -20,5 -20,10 0,6 -9,10 -20,10 -11,0 -20,5 -20,10 0,6 -9,10 -20,10 -11,0 -20,5 -20,10 0,6 -9,10 -20,10 -11,0 -20,5 -20,10 0,6 -9,10 -20,10 -11,0 -20,5 -20,10 0,6 -9,10 -20,10 -11,0 -20,5 -20,10 0,6 -9,10 -20,10 -11,0 -20,5 -20,10 0,6 -7,10 -15,10 -26,0 -105,86 -105,115 0,14 -4,25 -10,25 -6,0 -10,30 -10,70 0,40 4,70 10,70 6,0 10,7 10,15 0,20 45,65 65,65 8,0 15,5 15,10 0,6 14,10 30,10 17,0 30,5 30,10 0,6 40,10 100,10 60,0 100,-4 100,-10 0,-5 9,-10 20,-10 11,0 20,-4 20,-10 0,-5 9,-10 20,-10 11,0 20,-4 20,-10 0,-5 7,-10 15,-10 19,0 65,-44 65,-62 0,-8 9,-20 20,-28 11,-8 20,-22 20,-32 0,-10 5,-18 10,-18 6,0 10,-9 10,-20 0,-11 5,-20 10,-20 6,0 10,-9 10,-20 0,-17 7,-20 50,-20 h 50 v 100 c 0,60 -4,100 -10,100 -6,0 -10,29 -10,66 0,67 -13,94 -44,94 -9,0 -16,5 -16,10 0,6 -18,10 -40,10 -22,0 -40,5 -40,10 0,6 -22,10 -50,10 -27,0 -50,5 -50,10 0,6 -67,10 -180,10 -113,0 -180,-4 -180,-10 z"
       id="path3" />
    <path
       d="m 9460,7620 c 0,-11 -4,-20 -10,-20 -5,0 -10,-13 -10,-30 0,-16 -4,-30 -10,-30 -5,0 -10,-9 -10,-20 0,-11 -4,-20 -10,-20 -5,0 -10,-13 -10,-30 0,-16 -4,-30 -10,-30 -5,0 -10,-13 -10,-30 0,-16 -4,-30 -10,-30 -5,0 -10,-9 -10,-20 0,-11 -4,-20 -10,-20 -5,0 -10,-13 -10,-30 0,-16 -4,-30 -10,-30 -5,0 -10,-9 -10,-20 0,-11 -4,-20 -10,-20 -5,0 -10,-13 -10,-30 0,-16 -4,-30 -10,-30 -5,0 -10,-13 -10,-30 0,-16 -4,-30 -10,-30 -5,0 -10,-9 -10,-20 0,-11 -4,-20 -10,-20 -5,0 -10,-13 -10,-30 0,-16 -4,-30 -10,-30 -5,0 -10,-9 -10,-20 0,-11 -4,-20 -10,-20 -5,0 -10,-13 -10,-30 0,-16 -4,-30 -10,-30 -5,0 -10,-9 -10,-20 0,-11 -4,-20 -10,-20 -5,0 -10,-13 -10,-30 0,-16 -4,-30 -10,-30 -5,0 -10,-13 -10,-30 0,-16 -4,-30 -10,-30 -5,0 -10,-13 -10,-30 0,-16 -4,-30 -10,-30 -5,0 -10,-9 -10,-20 0,-11 -4,-20 -10,-20 -5,0 -10,-13 -10,-30 0,-16 -4,-30 -10,-30 -5,0 -10,-13 -10,-30 0,-16 -4,-30 -10,-30 -5,0 -10,-9 -10,-20 0,-11 -4,-20 -10,-20 -5,0 -10,-13 -10,-30 0,-16 -4,-30 -10,-30 -5,0 -10,-9 -10,-20 0,-11 -4,-20 -10,-20 -5,0 -10,-9 -10,-20 0,-11 -4,-20 -10,-20 -5,0 -10,-7 -10,-15 0,-23 -66,-85 -90,-85 -24,0 -70,-42 -70,-65 0,-13 32,-15 260,-15 h 260 v 30 c 0,23 -4,30 -20,30 -11,0 -20,5 -20,10 0,6 -11,10 -25,10 -28,0 -75,40 -75,64 0,8 -6,17 -12,20 -10,5 -10,7 0,12 7,4 12,27 12,65 0,33 4,59 10,59 6,0 10,14 10,30 0,17 5,30 10,30 6,0 10,14 10,30 0,17 5,30 10,30 6,0 10,14 10,30 0,17 5,30 10,30 6,0 10,9 10,20 0,19 7,20 246,20 266,0 274,-2 274,-54 0,-14 5,-26 10,-26 6,0 10,-9 10,-20 0,-11 5,-20 10,-20 6,0 10,-13 10,-30 0,-16 5,-30 10,-30 6,0 10,-13 10,-30 0,-16 5,-30 10,-30 6,0 10,-13 10,-30 0,-16 5,-30 10,-30 6,0 10,-20 10,-45 0,-35 -6,-52 -25,-70 -13,-14 -31,-25 -40,-25 -8,0 -15,-4 -15,-10 0,-5 -9,-10 -20,-10 -16,0 -20,-7 -20,-30 v -30 h 270 c 236,0 270,2 270,15 0,18 -64,85 -80,85 -17,0 -40,26 -40,44 0,9 -4,16 -10,16 -5,0 -10,9 -10,20 0,11 -4,20 -10,20 -5,0 -10,14 -10,30 0,17 -4,30 -10,30 -5,0 -10,14 -10,30 0,17 -4,30 -10,30 -5,0 -10,14 -10,30 0,17 -4,30 -10,30 -5,0 -10,14 -10,30 0,17 -4,30 -10,30 -5,0 -10,9 -10,20 0,11 -4,20 -10,20 -5,0 -10,14 -10,30 0,17 -4,30 -10,30 -5,0 -10,14 -10,30 0,17 -4,30 -10,30 -5,0 -10,14 -10,30 0,17 -4,30 -10,30 -5,0 -10,9 -10,20 0,11 -4,20 -10,20 -5,0 -10,14 -10,30 0,17 -4,30 -10,30 -5,0 -10,14 -10,30 0,17 -4,30 -10,30 -5,0 -10,14 -10,30 0,17 -4,30 -10,30 -5,0 -10,14 -10,30 0,17 -4,30 -10,30 -5,0 -10,9 -10,20 0,11 -4,20 -10,20 -5,0 -10,14 -10,30 0,17 -4,30 -10,30 -5,0 -10,9 -10,20 0,11 -4,20 -10,20 -5,0 -10,14 -10,30 0,17 -4,30 -10,30 -5,0 -10,14 -10,30 0,17 -4,30 -10,30 -5,0 -10,9 -10,20 0,11 -4,20 -10,20 -5,0 -10,14 -10,30 0,17 -4,30 -10,30 -5,0 -10,14 -10,30 0,17 -4,30 -10,30 -5,0 -10,11 -10,25 0,14 -11,37 -25,50 -23,23 -31,25 -130,25 -98,0 -105,-1 -105,-20 z m 80,-280 c 0,-22 5,-40 10,-40 6,0 10,-13 10,-30 0,-16 5,-30 10,-30 6,0 10,-9 10,-20 0,-11 5,-20 10,-20 6,0 10,-13 10,-30 0,-16 5,-30 10,-30 6,0 10,-9 10,-20 0,-11 5,-20 10,-20 6,0 10,-13 10,-30 0,-16 5,-30 10,-30 6,0 10,-13 10,-30 0,-16 5,-30 10,-30 6,0 10,-13 10,-30 0,-16 5,-30 10,-30 6,0 10,-18 10,-40 v -40 h -180 -180 v 40 c 0,22 5,40 10,40 6,0 10,14 10,30 0,17 5,30 10,30 6,0 10,14 10,30 0,17 5,30 10,30 6,0 10,9 10,20 0,11 5,20 10,20 6,0 10,14 10,30 0,17 5,30 10,30 6,0 10,9 10,20 0,11 5,20 10,20 6,0 10,14 10,30 0,17 5,30 10,30 6,0 10,14 10,30 0,17 5,30 10,30 6,0 10,11 10,25 0,25 17,54 33,55 4,0 7,-18 7,-40 z"
       id="path4" />
    <path
       d="m 11020,7630 c 0,-6 -87,-10 -240,-10 h -240 v -30 c 0,-23 4,-30 20,-30 11,0 20,-4 20,-10 0,-5 11,-10 25,-10 14,0 37,-11 50,-25 21,-20 25,-34 25,-79 0,-34 5,-57 13,-60 10,-5 10,-7 0,-12 -15,-7 -17,-44 -3,-44 16,0 14,-757 -2,-764 -10,-5 -10,-7 0,-12 14,-7 17,-104 2,-104 -6,0 -10,-28 -10,-65 0,-57 -3,-69 -25,-90 -13,-14 -31,-25 -40,-25 -8,0 -15,-4 -15,-10 0,-5 -7,-10 -16,-10 -20,0 -44,-24 -44,-44 0,-14 29,-16 249,-16 190,0 251,-3 255,-12 5,-10 7,-10 12,0 3,6 14,12 25,12 14,0 19,7 19,30 0,23 -4,30 -20,30 -11,0 -20,5 -20,10 0,6 -9,10 -20,10 -11,0 -20,5 -20,10 0,6 -7,10 -16,10 -20,0 -44,24 -44,44 0,9 -4,16 -10,16 -6,0 -10,87 -10,240 v 240 h 85 86 l 44,-45 c 25,-24 45,-51 45,-60 0,-8 5,-15 10,-15 6,0 10,-9 10,-20 0,-11 5,-20 10,-20 6,0 10,-9 10,-20 0,-11 5,-20 10,-20 6,0 10,-9 10,-20 0,-11 5,-20 10,-20 6,0 10,-9 10,-20 0,-11 5,-20 10,-20 6,0 10,-9 10,-20 0,-11 5,-20 10,-20 6,0 10,-9 10,-20 0,-11 5,-20 10,-20 6,0 10,-9 10,-20 0,-11 5,-20 10,-20 6,0 10,-9 10,-20 0,-11 5,-20 10,-20 6,0 10,-8 10,-18 0,-10 9,-24 20,-32 11,-8 20,-22 20,-32 0,-10 5,-18 10,-18 6,0 10,-9 10,-20 0,-11 5,-20 10,-20 6,0 10,-9 10,-20 0,-13 7,-20 20,-20 11,0 20,-4 20,-10 0,-6 70,-10 190,-10 165,0 190,2 190,15 0,20 -45,65 -65,65 -8,0 -15,5 -15,10 0,6 -7,10 -15,10 -19,0 -105,84 -105,103 0,7 -9,19 -20,27 -11,8 -20,22 -20,32 0,10 -4,18 -10,18 -5,0 -10,9 -10,20 0,11 -4,20 -10,20 -5,0 -10,8 -10,18 0,10 -9,24 -20,32 -11,8 -20,22 -20,32 0,10 -4,18 -10,18 -5,0 -10,9 -10,20 0,11 -4,20 -10,20 -5,0 -10,9 -10,20 0,11 -4,20 -10,20 -5,0 -10,9 -10,20 0,11 -4,20 -10,20 -5,0 -10,9 -10,20 0,11 -4,20 -10,20 -5,0 -10,7 -10,16 0,8 -18,33 -41,55 -36,35 -39,41 -25,54 8,8 22,15 30,15 9,0 16,5 16,10 0,6 8,10 18,10 10,0 24,9 32,20 8,11 20,20 28,20 18,0 82,66 82,85 0,8 5,15 10,15 6,0 10,9 10,20 0,11 5,20 10,20 6,0 10,14 10,30 0,17 5,30 10,30 6,0 10,37 10,90 0,53 -4,90 -10,90 -5,0 -10,14 -10,30 0,17 -4,30 -10,30 -5,0 -10,9 -10,20 0,11 -4,20 -10,20 -5,0 -10,7 -10,15 0,20 -85,105 -105,105 -8,0 -15,5 -15,10 0,6 -9,10 -20,10 -11,0 -20,5 -20,10 0,6 -13,10 -30,10 -16,0 -30,5 -30,10 0,6 -27,10 -60,10 -33,0 -60,4 -60,10 0,6 -47,10 -120,10 -73,0 -120,-4 -120,-10 z m 100,-120 c 0,-6 27,-10 60,-10 33,0 60,-4 60,-10 0,-5 9,-10 20,-10 11,0 20,-4 20,-10 0,-5 7,-10 16,-10 20,0 44,-24 44,-44 0,-9 5,-16 10,-16 6,0 10,-9 10,-20 0,-11 5,-20 10,-20 6,0 10,-13 10,-30 0,-16 5,-30 10,-30 6,0 10,-22 10,-50 0,-27 -4,-50 -10,-50 -5,0 -10,-18 -10,-40 0,-22 -4,-40 -10,-40 -5,0 -10,-9 -10,-20 0,-11 -4,-20 -10,-20 -5,0 -10,-7 -10,-15 0,-20 -45,-65 -65,-65 -8,0 -15,-4 -15,-10 0,-5 -9,-10 -20,-10 -11,0 -20,-4 -20,-10 0,-5 -18,-10 -40,-10 -22,0 -40,-4 -40,-10 0,-6 -40,-10 -100,-10 h -100 v 275 c 0,207 3,279 13,290 14,17 167,21 167,5 z"
       id="path5" />
    <path
       d="m 6013,7605 c -20,-22 -16,-45 7,-45 11,0 20,-4 20,-10 0,-5 7,-10 15,-10 9,0 31,-16 50,-35 l 35,-34 v -576 c 0,-377 -3,-575 -10,-575 -5,0 -10,-9 -10,-20 0,-13 -7,-20 -20,-20 -11,0 -20,-4 -20,-10 0,-5 -7,-10 -15,-10 -20,0 -65,-45 -65,-65 0,-13 33,-15 270,-15 h 270 v 30 c 0,23 -4,30 -20,30 -11,0 -20,5 -20,10 0,6 -9,10 -20,10 -11,0 -20,5 -20,10 0,6 -9,10 -20,10 -13,0 -20,7 -20,20 0,11 -4,20 -10,20 -6,0 -10,85 -10,236 0,191 3,238 14,250 8,8 20,14 26,14 14,0 100,-86 100,-101 0,-6 18,-28 40,-49 22,-21 40,-44 40,-50 0,-7 14,-25 30,-40 17,-15 30,-33 30,-40 0,-7 14,-25 30,-40 17,-15 30,-33 30,-40 0,-7 14,-25 30,-40 17,-15 30,-34 30,-42 0,-7 9,-20 20,-28 11,-8 20,-21 20,-28 0,-7 18,-31 40,-52 22,-21 40,-44 40,-50 0,-36 25,-40 234,-40 h 206 v 30 c 0,23 -4,30 -20,30 -11,0 -20,5 -20,10 0,6 -13,10 -30,10 -16,0 -30,5 -30,10 0,6 -7,10 -15,10 -18,0 -165,144 -165,161 0,6 -13,24 -30,39 -16,15 -30,33 -30,40 0,7 -13,25 -30,40 -16,15 -30,33 -30,40 0,7 -13,25 -30,40 -16,15 -30,33 -30,40 0,7 -13,25 -30,40 -16,15 -30,33 -30,40 0,7 -13,25 -30,40 -16,15 -30,33 -30,40 0,7 -13,25 -30,40 -16,15 -30,33 -30,40 0,7 -15,26 -32,43 -21,19 -28,32 -20,34 6,3 12,11 12,19 0,18 445,464 463,464 7,0 19,9 27,20 8,11 22,20 32,20 10,0 18,5 18,10 0,6 14,10 30,10 17,0 30,5 30,10 0,6 7,10 16,10 20,0 44,24 44,44 0,14 -32,16 -280,16 -246,0 -280,-2 -280,-15 0,-20 45,-65 65,-65 8,0 15,-9 15,-20 0,-11 5,-20 10,-20 18,0 11,-35 -10,-50 -11,-8 -20,-20 -20,-28 0,-7 -22,-35 -50,-62 -27,-27 -50,-54 -50,-60 0,-6 -54,-64 -120,-130 -66,-66 -120,-124 -120,-130 0,-11 -85,-100 -95,-100 -3,0 -5,122 -5,270 0,173 4,270 10,270 6,0 10,7 10,16 0,23 25,44 54,44 14,0 26,5 26,10 0,6 9,10 20,10 16,0 20,7 20,30 v 30 h -257 c -210,-1 -260,-3 -270,-15 z"
       id="path6" />
    <path
       d="m 7480,7605 c 0,-9 11,-27 25,-40 13,-14 31,-25 40,-25 8,0 15,-4 15,-10 0,-5 7,-10 15,-10 19,0 65,-44 65,-62 0,-8 9,-20 20,-28 11,-8 20,-21 20,-30 0,-9 9,-22 20,-30 11,-8 20,-22 20,-32 0,-10 5,-18 10,-18 6,0 10,-8 10,-18 0,-10 9,-24 20,-32 11,-8 20,-22 20,-32 0,-10 5,-18 10,-18 6,0 10,-9 10,-20 0,-11 5,-20 10,-20 6,0 10,-8 10,-18 0,-10 9,-24 20,-32 11,-8 20,-22 20,-32 0,-10 5,-18 10,-18 6,0 10,-9 10,-20 0,-11 5,-20 10,-20 6,0 10,-9 10,-20 0,-11 5,-20 10,-20 6,0 10,-8 10,-18 0,-10 9,-24 20,-32 11,-8 20,-22 20,-32 0,-10 5,-18 10,-18 6,0 10,-9 10,-20 0,-11 5,-20 10,-20 6,0 10,-9 10,-20 0,-11 5,-20 10,-20 6,0 10,-9 10,-20 0,-11 5,-20 10,-20 6,0 10,-85 10,-235 v -236 l -25,-24 c -13,-14 -31,-25 -40,-25 -8,0 -15,-4 -15,-10 0,-5 -7,-10 -16,-10 -20,0 -44,-24 -44,-44 0,-14 32,-16 280,-16 h 280 v 30 c 0,23 -4,30 -20,30 -11,0 -20,5 -20,10 0,6 -9,10 -20,10 -11,0 -20,5 -20,10 0,6 -7,10 -16,10 -23,0 -44,25 -44,54 0,14 -4,26 -10,26 -6,0 -10,70 -10,190 0,120 4,190 10,190 6,0 10,14 10,30 0,17 5,30 10,30 6,0 10,9 10,20 0,11 5,20 10,20 6,0 10,8 10,18 0,10 9,24 20,32 11,8 20,22 20,32 0,10 5,18 10,18 6,0 10,8 10,18 0,10 9,24 20,32 11,8 20,22 20,32 0,10 5,18 10,18 6,0 10,9 10,20 0,11 5,20 10,20 6,0 10,8 10,18 0,10 9,24 20,32 11,8 20,22 20,32 0,10 5,18 10,18 6,0 10,8 10,18 0,10 9,24 20,32 11,8 20,22 20,32 0,10 5,18 10,18 6,0 10,9 10,20 0,11 5,20 10,20 6,0 10,8 10,18 0,10 9,24 20,32 11,8 20,21 20,28 0,8 14,27 30,42 17,15 30,33 30,40 0,16 26,40 44,40 9,0 16,5 16,10 0,6 7,10 15,10 20,0 65,45 65,65 0,13 -29,15 -226,15 -182,0 -228,-3 -240,-14 -18,-19 -18,-26 1,-26 20,0 105,-85 105,-105 0,-8 -4,-15 -10,-15 -5,0 -10,-13 -10,-30 0,-16 -4,-30 -10,-30 -5,0 -10,-9 -10,-20 0,-11 -4,-20 -10,-20 -5,0 -10,-9 -10,-20 0,-11 -4,-20 -10,-20 -5,0 -10,-9 -10,-20 0,-11 -4,-20 -10,-20 -5,0 -10,-9 -10,-20 0,-11 -4,-20 -10,-20 -5,0 -10,-8 -10,-18 0,-10 -9,-24 -20,-32 -11,-8 -20,-22 -20,-32 0,-10 -4,-18 -10,-18 -5,0 -10,-9 -10,-20 0,-11 -4,-20 -10,-20 -5,0 -10,-9 -10,-20 0,-11 -4,-20 -10,-20 -5,0 -10,-9 -10,-20 0,-11 -4,-20 -10,-20 -5,0 -10,-9 -10,-20 0,-11 -4,-20 -10,-20 -5,0 -10,-7 -10,-16 0,-15 -23,-44 -34,-44 -3,0 -6,9 -6,20 0,11 -4,20 -10,20 -5,0 -10,9 -10,20 0,11 -4,20 -10,20 -5,0 -10,9 -10,20 0,11 -4,20 -10,20 -5,0 -10,9 -10,20 0,11 -4,20 -10,20 -5,0 -10,9 -10,20 0,11 -4,20 -10,20 -5,0 -10,9 -10,20 0,11 -4,20 -10,20 -5,0 -10,8 -10,18 0,10 -9,24 -20,32 -11,8 -20,22 -20,32 0,10 -4,18 -10,18 -5,0 -10,9 -10,20 0,11 -4,20 -10,20 -5,0 -10,9 -10,20 0,11 -4,20 -10,20 -5,0 -10,9 -10,20 0,11 -4,20 -10,20 -5,0 -10,9 -10,20 0,11 -4,20 -10,20 -5,0 -10,21 -10,46 0,47 16,74 44,74 9,0 16,5 16,10 0,6 7,10 16,10 20,0 44,24 44,44 0,14 -34,16 -300,16 -264,0 -300,-2 -300,-15 z"
       id="path7" />
    <path
       d="m 12112,7604 c -11,-12 -11,-17 2,-29 8,-8 22,-15 30,-15 9,0 16,-4 16,-10 0,-5 7,-10 15,-10 9,0 31,-16 50,-35 l 35,-34 v -571 -571 l -35,-34 c -19,-19 -41,-35 -50,-35 -8,0 -15,-4 -15,-10 0,-5 -9,-10 -20,-10 -16,0 -20,-7 -20,-30 v -30 h 280 280 v 30 c 0,23 -4,30 -20,30 -11,0 -20,5 -20,10 0,6 -11,10 -25,10 -29,0 -75,40 -75,65 0,8 -4,15 -10,15 -6,0 -10,75 -10,205 v 206 l 25,25 25,25 55,-55 c 30,-31 55,-61 55,-69 0,-7 9,-19 20,-27 11,-8 20,-21 20,-28 0,-8 14,-27 30,-42 17,-15 30,-33 30,-40 0,-7 14,-25 30,-40 17,-15 30,-33 30,-40 0,-7 14,-25 30,-40 17,-15 30,-33 30,-40 0,-7 14,-25 30,-40 17,-15 30,-33 30,-40 0,-7 14,-25 30,-40 17,-15 30,-35 30,-44 0,-9 8,-16 20,-16 11,0 20,-4 20,-10 0,-6 72,-10 196,-10 160,0 198,3 210,15 14,13 14,17 0,30 -8,8 -22,15 -30,15 -9,0 -16,5 -16,10 0,6 -9,10 -20,10 -11,0 -20,5 -20,10 0,6 -9,10 -20,10 -11,0 -20,5 -20,10 0,6 -7,10 -15,10 -18,0 -105,84 -105,101 0,6 -18,28 -40,49 -22,21 -40,44 -40,50 0,7 -13,25 -30,40 -16,15 -30,33 -30,40 0,7 -13,25 -30,40 -16,15 -30,33 -30,40 0,6 -18,29 -40,50 -22,21 -40,45 -40,52 0,7 -9,20 -20,28 -11,8 -20,20 -20,28 0,7 -22,35 -50,62 -27,27 -50,56 -50,64 0,9 -4,16 -10,16 -5,0 -10,7 -10,15 0,20 505,525 525,525 8,0 15,5 15,10 0,6 9,10 20,10 11,0 20,5 20,10 0,6 9,10 20,10 11,0 20,5 20,10 0,6 7,10 16,10 20,0 44,24 44,44 0,14 -31,16 -266,16 -222,0 -268,-2 -280,-15 -13,-13 -12,-18 10,-40 14,-14 30,-25 36,-25 21,0 40,-28 40,-60 0,-24 -10,-41 -40,-70 -22,-21 -40,-43 -40,-49 0,-7 -63,-74 -140,-151 -77,-77 -140,-144 -140,-150 0,-16 -88,-100 -105,-100 -13,0 -15,33 -15,255 v 256 l 35,34 c 19,19 41,35 50,35 8,0 15,5 15,10 0,6 7,10 16,10 8,0 22,7 30,15 14,13 14,17 0,30 -22,22 -534,22 -554,-1 z"
       id="path8" />
    <path
       d="m 13740,7590 c 0,-23 4,-30 20,-30 11,0 20,-4 20,-10 0,-5 7,-10 15,-10 9,0 31,-16 50,-35 l 35,-34 v -571 -571 l -35,-34 c -19,-19 -41,-35 -50,-35 -8,0 -15,-4 -15,-10 0,-5 -9,-10 -20,-10 -16,0 -20,-7 -20,-30 v -30 h 280 c 246,0 280,2 280,15 0,25 -46,65 -75,65 -14,0 -25,5 -25,10 0,6 -9,10 -20,10 -13,0 -20,7 -20,20 0,11 -4,20 -10,20 -7,0 -10,197 -10,570 0,373 3,570 10,570 6,0 10,7 10,16 0,20 24,44 44,44 9,0 16,5 16,10 0,6 9,10 20,10 11,0 20,5 20,10 0,6 9,10 20,10 16,0 20,7 20,30 v 30 h -280 -280 z"
       id="path9" />
    <path
       d="m 14580,7605 c 0,-20 45,-65 65,-65 8,0 15,-4 15,-10 0,-5 7,-10 16,-10 20,0 44,-24 44,-44 0,-9 5,-16 10,-16 7,0 10,-195 10,-565 v -566 l -35,-34 c -19,-19 -41,-35 -50,-35 -8,0 -15,-4 -15,-10 0,-5 -9,-10 -20,-10 -16,0 -20,-7 -20,-30 v -30 h 400 c 260,0 400,-3 400,-10 0,-5 18,-10 40,-10 22,0 40,5 40,10 0,14 37,12 44,-2 5,-10 7,-10 12,0 4,8 30,12 81,12 76,0 103,11 103,43 0,9 6,18 13,20 9,4 8,8 -3,17 -11,9 -12,13 -2,17 8,3 12,26 12,64 0,33 4,59 10,59 6,0 10,27 10,60 v 60 h -36 c -36,0 -64,-18 -64,-42 0,-8 -9,-20 -20,-28 -11,-8 -20,-20 -20,-28 0,-23 -68,-82 -95,-82 -14,0 -25,-4 -25,-10 0,-5 -9,-10 -20,-10 -11,0 -20,-4 -20,-10 0,-5 -22,-10 -50,-10 -27,0 -50,-4 -50,-10 0,-6 -50,-10 -130,-10 -80,0 -130,4 -130,10 0,6 -13,10 -30,10 -16,0 -30,5 -30,10 0,6 -9,10 -20,10 -19,0 -20,7 -20,260 v 260 h 160 c 100,0 160,-4 160,-10 0,-5 14,-10 30,-10 17,0 30,-4 30,-10 0,-5 9,-10 20,-10 11,0 20,-7 20,-15 0,-22 52,-73 58,-57 2,7 12,12 23,12 18,0 19,9 19,170 v 170 h -25 c -26,0 -75,-40 -75,-60 0,-22 -29,-40 -64,-40 -20,0 -36,-4 -36,-10 0,-6 -53,-10 -140,-10 -87,0 -140,4 -140,10 0,6 -9,10 -20,10 -19,0 -20,7 -20,260 v 260 h 190 c 120,0 190,-4 190,-10 0,-5 16,-10 35,-10 29,0 44,-9 80,-45 25,-24 45,-50 45,-58 0,-7 9,-19 20,-27 11,-8 20,-25 20,-38 0,-27 31,-64 38,-44 2,6 17,12 33,12 h 29 v 80 c 0,47 -4,80 -10,80 -6,0 -10,37 -10,90 v 90 h -540 c -480,0 -540,-2 -540,-15 z"
       id="path10" />
    <path
       d="m 6860,5510 c 0,-5 -18,-10 -40,-10 -22,0 -40,-4 -40,-10 0,-5 -9,-10 -20,-10 -11,0 -20,-4 -20,-10 0,-5 -9,-10 -20,-10 -11,0 -20,-4 -20,-10 0,-5 -8,-10 -18,-10 -10,0 -24,-9 -32,-20 -8,-11 -20,-20 -27,-20 -17,0 -123,-106 -123,-123 0,-7 -9,-19 -20,-27 -11,-8 -20,-22 -20,-32 0,-10 -4,-18 -10,-18 -5,0 -10,-9 -10,-20 0,-11 -4,-20 -10,-20 -5,0 -10,-9 -10,-20 0,-11 -4,-20 -10,-20 -5,0 -10,-13 -10,-30 0,-16 -4,-30 -10,-30 -5,0 -10,-22 -10,-50 0,-27 -4,-50 -10,-50 -6,0 -10,-53 -10,-140 0,-87 4,-140 10,-140 6,0 10,-18 10,-40 0,-22 5,-40 10,-40 6,0 10,-13 10,-30 0,-16 5,-30 10,-30 6,0 10,-9 10,-20 0,-11 5,-20 10,-20 6,0 10,-9 10,-20 0,-11 5,-20 10,-20 6,0 10,-7 10,-16 0,-8 18,-33 40,-54 22,-21 40,-43 40,-50 0,-15 46,-60 62,-60 8,0 20,-9 28,-20 8,-11 22,-20 32,-20 10,0 18,-4 18,-10 0,-5 9,-10 20,-10 11,0 20,-4 20,-10 0,-5 9,-10 20,-10 11,0 20,-4 20,-10 0,-5 14,-10 30,-10 17,0 30,-4 30,-10 0,-6 33,-10 80,-10 47,0 80,-4 80,-10 0,-6 27,-10 60,-10 33,0 60,4 60,10 0,6 23,10 50,10 28,0 50,5 50,10 0,6 14,10 30,10 17,0 30,5 30,10 0,6 9,10 20,10 11,0 20,5 20,10 0,6 8,10 18,10 10,0 24,9 32,20 8,11 20,20 27,20 17,0 163,146 163,163 0,7 9,19 20,27 11,8 20,22 20,32 0,10 5,18 10,18 6,0 10,9 10,20 0,11 5,20 10,20 6,0 10,14 10,30 0,17 5,30 10,30 6,0 10,18 10,40 0,22 5,40 10,40 6,0 10,67 10,180 0,113 -4,180 -10,180 -5,0 -10,14 -10,30 0,17 -4,30 -10,30 -5,0 -10,14 -10,30 0,17 -4,30 -10,30 -5,0 -10,9 -10,20 0,11 -4,20 -10,20 -5,0 -10,8 -10,18 0,10 -9,24 -20,32 -11,8 -20,20 -20,27 0,19 -126,143 -145,143 -8,0 -15,5 -15,10 0,6 -9,10 -20,10 -11,0 -20,5 -20,10 0,6 -9,10 -20,10 -11,0 -20,5 -20,10 0,6 -9,10 -20,10 -11,0 -20,5 -20,10 0,6 -13,10 -30,10 -16,0 -30,5 -30,10 0,6 -63,10 -170,10 -107,0 -170,-4 -170,-10 z m 240,-120 c 0,-5 14,-10 30,-10 17,0 30,-4 30,-10 0,-5 7,-10 15,-10 9,0 49,-34 90,-75 41,-41 75,-81 75,-90 0,-8 5,-15 10,-15 6,0 10,-13 10,-30 0,-16 5,-30 10,-30 6,0 10,-13 10,-30 0,-16 5,-30 10,-30 6,0 10,-22 10,-50 0,-27 5,-50 10,-50 6,0 10,-50 10,-130 0,-80 -4,-130 -10,-130 -5,0 -10,-18 -10,-40 0,-22 -4,-40 -10,-40 -5,0 -10,-13 -10,-30 0,-16 -4,-30 -10,-30 -5,0 -10,-13 -10,-30 0,-16 -4,-30 -10,-30 -5,0 -10,-9 -10,-20 0,-11 -4,-20 -10,-20 -5,0 -10,-7 -10,-15 0,-20 -105,-125 -125,-125 -8,0 -15,-4 -15,-10 0,-5 -9,-10 -20,-10 -11,0 -20,-4 -20,-10 0,-6 -43,-10 -110,-10 -67,0 -110,4 -110,10 0,6 -9,10 -20,10 -11,0 -20,5 -20,10 0,6 -11,10 -25,10 -27,0 -135,98 -135,123 0,7 -9,19 -20,27 -11,8 -20,22 -20,32 0,10 -4,18 -10,18 -5,0 -10,14 -10,30 0,17 -4,30 -10,30 -5,0 -10,18 -10,40 0,22 -4,40 -10,40 -6,0 -10,73 -10,200 0,127 4,200 10,200 6,0 10,14 10,30 0,17 5,30 10,30 6,0 10,14 10,30 0,17 5,30 10,30 6,0 10,7 10,16 0,9 14,29 30,44 17,15 30,33 30,40 0,16 25,40 42,40 8,0 20,9 28,20 8,11 22,20 32,20 10,0 18,5 18,10 0,6 14,10 30,10 17,0 30,5 30,10 0,6 37,10 90,10 53,0 90,-4 90,-10 z"
       id="path11" />
    <path
       d="m 13600,5510 c 0,-5 -18,-10 -40,-10 -22,0 -40,-4 -40,-10 0,-5 -13,-10 -30,-10 -16,0 -30,-4 -30,-10 0,-5 -9,-10 -20,-10 -11,0 -20,-4 -20,-10 0,-5 -8,-10 -18,-10 -10,0 -24,-9 -32,-20 -8,-11 -20,-20 -27,-20 -17,0 -123,-106 -123,-123 0,-7 -9,-19 -20,-27 -11,-8 -20,-22 -20,-32 0,-10 -4,-18 -10,-18 -5,0 -10,-9 -10,-20 0,-11 -4,-20 -10,-20 -5,0 -10,-9 -10,-20 0,-11 -4,-20 -10,-20 -5,0 -10,-13 -10,-30 0,-16 -4,-30 -10,-30 -5,0 -10,-18 -10,-40 0,-22 -4,-40 -10,-40 -6,0 -10,-57 -10,-150 0,-93 4,-150 10,-150 6,0 10,-18 10,-40 0,-22 5,-40 10,-40 6,0 10,-13 10,-30 0,-16 5,-30 10,-30 6,0 10,-13 10,-28 0,-16 8,-34 20,-42 11,-8 20,-21 20,-30 0,-9 9,-22 20,-30 11,-8 20,-20 20,-27 0,-17 86,-103 103,-103 7,0 19,-9 27,-20 8,-11 22,-20 32,-20 10,0 18,-4 18,-10 0,-5 9,-10 20,-10 11,0 20,-4 20,-10 0,-5 9,-10 20,-10 11,0 20,-4 20,-10 0,-5 18,-10 40,-10 22,0 40,-4 40,-10 0,-6 27,-10 60,-10 33,0 60,-4 60,-10 0,-6 30,-10 70,-10 40,0 70,4 70,10 0,6 30,10 70,10 40,0 70,4 70,10 0,6 14,10 30,10 17,0 30,5 30,10 0,6 9,10 20,10 11,0 20,5 20,10 0,6 9,10 20,10 11,0 20,5 20,10 0,6 9,10 20,10 11,0 20,5 20,10 0,6 7,10 15,10 9,0 27,11 40,25 24,23 25,28 25,170 0,90 4,145 10,145 6,0 10,7 10,16 0,25 26,44 60,44 34,0 60,19 60,43 0,9 6,17 12,19 9,3 8,9 -4,21 -15,15 -48,17 -292,17 h -276 v -40 c 0,-33 3,-40 20,-40 11,0 20,-4 20,-10 0,-5 18,-10 40,-10 22,0 40,-4 40,-10 0,-5 7,-10 16,-10 31,0 44,-27 44,-93 0,-43 4,-67 13,-71 10,-5 10,-7 0,-12 -9,-4 -13,-29 -13,-75 0,-62 -2,-69 -20,-69 -11,0 -20,-4 -20,-10 0,-5 -9,-10 -20,-10 -11,0 -20,-4 -20,-10 0,-6 -43,-10 -110,-10 -67,0 -110,4 -110,10 0,6 -13,10 -30,10 -16,0 -30,5 -30,10 0,6 -9,10 -20,10 -11,0 -20,5 -20,10 0,6 -7,10 -15,10 -20,0 -145,125 -145,145 0,8 -4,15 -10,15 -5,0 -10,9 -10,20 0,11 -4,20 -10,20 -5,0 -10,14 -10,30 0,17 -4,30 -10,30 -5,0 -10,23 -10,50 0,28 -4,50 -10,50 -6,0 -10,63 -10,170 0,107 4,170 10,170 6,0 10,18 10,40 0,22 5,40 10,40 6,0 10,9 10,20 0,11 5,20 10,20 6,0 10,9 10,20 0,11 5,20 10,20 6,0 10,7 10,15 0,20 105,125 125,125 8,0 15,5 15,10 0,6 9,10 20,10 11,0 20,5 20,10 0,6 14,10 30,10 17,0 30,5 30,10 0,6 37,10 90,10 53,0 90,-4 90,-10 0,-5 14,-10 30,-10 17,0 30,-4 30,-10 0,-5 9,-10 20,-10 11,0 20,-4 20,-10 0,-5 7,-10 15,-10 19,0 85,-64 85,-82 0,-8 9,-20 20,-28 11,-8 20,-22 20,-32 0,-10 5,-18 10,-18 6,0 10,-9 10,-20 0,-11 5,-20 10,-20 6,0 10,-7 10,-16 0,-22 25,-44 50,-44 40,0 50,23 50,114 0,51 -4,86 -10,86 -6,0 -10,37 -10,90 0,83 -1,90 -20,90 -11,0 -20,5 -20,10 0,6 -22,10 -50,10 -27,0 -50,5 -50,10 0,6 -22,10 -50,10 -27,0 -50,5 -50,10 0,6 -67,10 -180,10 -113,0 -180,-4 -180,-10 z"
       id="path12" />
    <path
       d="m 14920,5510 c 0,-5 -13,-10 -30,-10 -16,0 -30,-4 -30,-10 0,-5 -13,-10 -28,-10 -16,0 -34,-8 -42,-20 -8,-11 -20,-20 -28,-20 -18,0 -82,-66 -82,-85 0,-8 -4,-15 -10,-15 -5,0 -10,-9 -10,-20 0,-11 -4,-20 -10,-20 -5,0 -10,-22 -10,-50 0,-27 -4,-50 -10,-50 -5,0 -10,-9 -10,-20 0,-11 5,-20 10,-20 6,0 10,-22 10,-50 0,-27 5,-50 10,-50 6,0 10,-9 10,-20 0,-11 5,-20 10,-20 6,0 10,-7 10,-15 0,-19 104,-125 123,-125 7,0 19,-9 27,-20 8,-11 22,-20 32,-20 10,0 18,-4 18,-10 0,-5 9,-10 20,-10 11,0 20,-4 20,-10 0,-5 9,-10 20,-10 11,0 20,-4 20,-10 0,-5 14,-10 30,-10 17,0 30,-4 30,-10 0,-5 9,-10 20,-10 11,0 20,-4 20,-10 0,-5 9,-10 20,-10 11,0 20,-4 20,-10 0,-5 9,-10 20,-10 11,0 20,-4 20,-10 0,-5 8,-10 18,-10 10,0 24,-9 32,-20 8,-11 20,-20 28,-20 18,0 62,-46 62,-65 0,-8 5,-15 10,-15 6,0 10,-13 10,-30 0,-16 5,-30 10,-30 6,0 10,-9 10,-20 0,-11 -4,-20 -10,-20 -5,0 -10,-17 -10,-38 0,-26 -6,-42 -20,-52 -11,-8 -20,-20 -20,-28 0,-18 -25,-42 -44,-42 -9,0 -16,-4 -16,-10 0,-5 -9,-10 -20,-10 -11,0 -20,-4 -20,-10 0,-6 -43,-10 -110,-10 -67,0 -110,4 -110,10 0,6 -13,10 -28,10 -16,0 -34,8 -42,20 -8,11 -20,20 -27,20 -19,0 -103,86 -103,105 0,8 -4,15 -10,15 -5,0 -10,9 -10,20 0,11 -4,20 -10,20 -5,0 -10,14 -10,30 0,28 -3,30 -36,30 -56,0 -64,-15 -64,-124 0,-57 4,-96 10,-96 6,0 10,-21 10,-46 0,-47 16,-74 44,-74 9,0 16,-4 16,-10 0,-5 14,-10 30,-10 17,0 30,-4 30,-10 0,-5 14,-10 30,-10 17,0 30,-4 30,-10 0,-6 33,-10 80,-10 47,0 80,-4 80,-10 0,-6 30,-10 70,-10 40,0 70,4 70,10 0,6 27,10 60,10 33,0 60,4 60,10 0,6 9,10 20,10 11,0 20,5 20,10 0,6 14,10 30,10 17,0 30,5 30,10 0,6 7,10 15,10 20,0 125,105 125,125 0,8 5,15 10,15 6,0 10,9 10,20 0,11 5,20 10,20 6,0 10,9 10,20 0,11 5,20 10,20 6,0 10,23 10,50 0,28 5,50 10,50 6,0 10,9 10,20 0,11 -4,20 -10,20 -5,0 -10,18 -10,40 0,22 -4,40 -10,40 -5,0 -10,12 -10,26 0,16 -12,37 -30,54 -16,15 -30,33 -30,40 0,16 -25,40 -42,40 -8,0 -20,9 -28,20 -8,11 -21,20 -30,20 -9,0 -22,9 -30,20 -8,11 -22,20 -32,20 -10,0 -18,5 -18,10 0,6 -9,10 -20,10 -11,0 -20,5 -20,10 0,6 -9,10 -20,10 -11,0 -20,5 -20,10 0,6 -9,10 -20,10 -11,0 -20,5 -20,10 0,6 -9,10 -20,10 -11,0 -20,5 -20,10 0,6 -9,10 -20,10 -11,0 -20,5 -20,10 0,6 -13,10 -28,10 -16,0 -34,8 -42,20 -8,11 -20,20 -28,20 -18,0 -82,66 -82,85 0,8 -4,15 -10,15 -6,0 -10,27 -10,60 0,33 4,60 10,60 6,0 10,7 10,15 0,26 66,85 95,85 14,0 25,5 25,10 0,6 27,10 60,10 33,0 60,-4 60,-10 0,-5 14,-10 30,-10 17,0 30,-4 30,-10 0,-5 7,-10 15,-10 20,0 105,-85 105,-105 0,-8 5,-15 10,-15 6,0 10,-9 10,-20 0,-11 5,-20 10,-20 6,0 10,-7 10,-16 0,-22 32,-53 38,-36 2,6 17,12 33,12 h 29 v 130 c 0,80 -4,130 -10,130 -5,0 -10,7 -10,16 0,23 -25,44 -54,44 -14,0 -26,5 -26,10 0,6 -22,10 -50,10 -27,0 -50,5 -50,10 0,6 -60,10 -160,10 -100,0 -160,-4 -160,-10 z"
       id="path13" />
    <path
       d="m 4840,5474 c 0,-33 21,-54 54,-54 14,0 26,-4 26,-10 0,-5 9,-10 20,-10 13,0 20,-7 20,-20 0,-11 5,-20 10,-20 6,0 10,-13 10,-30 0,-16 5,-30 10,-30 7,0 10,-160 10,-460 0,-300 -3,-460 -10,-460 -5,0 -10,-16 -10,-35 0,-27 -8,-44 -35,-70 -19,-19 -41,-35 -50,-35 -8,0 -15,-4 -15,-10 0,-5 -9,-10 -20,-10 -13,0 -20,-7 -20,-20 0,-19 7,-20 139,-20 102,0 141,-3 144,-12 4,-10 8,-9 17,2 9,11 13,12 17,3 6,-16 103,-18 103,-3 0,6 23,10 50,10 49,0 50,1 50,30 0,23 -4,30 -20,30 -11,0 -20,5 -20,10 0,6 -9,10 -20,10 -11,0 -20,5 -20,10 0,6 -9,10 -20,10 -16,0 -20,7 -20,30 0,17 -4,30 -10,30 -6,0 -10,80 -10,220 v 220 h 276 c 225,0 278,-3 290,-14 11,-12 14,-55 14,-220 0,-131 -4,-206 -10,-206 -5,0 -10,-7 -10,-15 0,-18 -64,-85 -80,-85 -17,0 -40,-26 -40,-44 0,-13 13,-16 70,-16 40,0 70,-4 70,-10 0,-15 117,-13 124,3 5,10 7,10 12,0 4,-9 31,-13 84,-13 53,0 80,4 83,13 4,9 8,8 17,-3 9,-11 13,-12 17,-2 2,6 13,12 24,12 10,0 19,7 19,15 0,23 -46,65 -70,65 -12,0 -32,11 -45,25 l -25,24 v 521 521 l 35,34 c 19,19 39,35 45,35 16,0 60,47 60,65 0,13 -32,15 -256,15 -208,0 -258,-3 -270,-14 -8,-8 -14,-20 -14,-26 0,-19 27,-40 52,-40 13,0 30,-9 38,-20 8,-11 22,-20 32,-20 13,0 18,-8 18,-30 0,-16 5,-30 10,-30 6,0 10,-73 10,-200 v -200 h -290 -290 v 210 c 0,133 4,210 10,210 6,0 10,7 10,15 0,25 46,65 75,65 14,0 25,5 25,10 0,6 9,10 20,10 23,0 27,25 6,46 -12,11 -62,14 -270,14 h -256 z"
       id="path14" />
    <path
       d="m 7880,5474 c 0,-29 21,-54 44,-54 9,0 16,-4 16,-10 0,-5 9,-10 20,-10 11,0 20,-4 20,-10 0,-5 9,-10 20,-10 16,0 20,-7 20,-30 0,-16 5,-30 10,-30 7,0 10,-160 10,-460 0,-300 -3,-460 -10,-460 -5,0 -10,-20 -10,-45 0,-35 -6,-52 -25,-70 -13,-14 -31,-25 -40,-25 -8,0 -15,-4 -15,-10 0,-5 -7,-10 -16,-10 -20,0 -44,-24 -44,-44 0,-12 11,-16 49,-16 30,0 52,-5 55,-12 5,-10 7,-10 12,0 7,14 64,17 64,2 0,-5 9,-10 20,-10 11,0 20,5 20,10 0,6 23,10 50,10 28,0 50,-4 50,-10 0,-5 18,-10 40,-10 22,0 40,5 40,10 0,6 18,10 40,10 22,0 40,-4 40,-10 0,-6 63,-10 170,-10 107,0 170,4 170,10 0,6 14,10 30,10 17,0 30,-4 30,-10 0,-15 70,-12 86,4 9,9 14,35 14,70 0,31 5,56 10,56 6,0 10,33 10,80 0,47 4,80 10,80 15,0 12,49 -4,66 -29,28 -86,8 -86,-30 0,-9 -4,-16 -10,-16 -5,0 -10,-9 -10,-20 0,-11 -4,-20 -10,-20 -5,0 -10,-7 -10,-15 0,-20 -85,-105 -105,-105 -8,0 -15,-4 -15,-10 0,-6 -43,-10 -110,-10 -67,0 -110,-4 -110,-10 0,-5 -9,-10 -20,-10 -11,0 -20,5 -20,10 0,6 -16,10 -36,10 -67,0 -64,-25 -64,534 0,331 3,506 10,506 6,0 10,7 10,16 0,20 24,44 44,44 9,0 16,5 16,10 0,6 9,10 20,10 11,0 20,5 20,10 0,6 7,10 16,10 8,0 22,7 30,15 14,13 14,17 0,30 -12,13 -59,15 -290,15 h -276 z"
       id="path15" />
    <path
       d="m 9120,5474 c 0,-31 21,-54 50,-54 11,0 36,-16 55,-35 l 35,-34 v -516 c 0,-337 -3,-515 -10,-515 -5,0 -10,-9 -10,-20 0,-13 -7,-20 -20,-20 -11,0 -20,-4 -20,-10 0,-5 -7,-10 -15,-10 -9,0 -27,-11 -41,-25 -22,-22 -23,-27 -10,-40 11,-11 40,-15 120,-15 64,0 106,-4 106,-10 0,-15 77,-12 84,3 5,10 7,10 12,0 3,-7 14,-13 24,-13 10,0 21,6 23,13 4,9 8,8 16,-3 10,-13 12,-13 22,0 8,11 12,12 16,3 6,-15 43,-17 43,-3 0,6 53,10 140,10 87,0 140,4 140,10 0,6 18,10 40,10 22,0 40,5 40,10 0,6 14,10 30,10 17,0 30,5 30,10 0,6 9,10 20,10 11,0 20,5 20,10 0,6 8,10 18,10 10,0 24,9 32,20 8,11 20,20 27,20 17,0 143,126 143,143 0,7 9,19 20,27 11,8 20,22 20,32 0,10 5,18 10,18 6,0 10,9 10,20 0,11 5,20 10,20 6,0 10,14 10,30 0,17 5,30 10,30 6,0 10,14 10,30 0,17 5,30 10,30 6,0 10,67 10,180 0,113 -4,180 -10,180 -5,0 -10,14 -10,30 0,17 -4,30 -10,30 -5,0 -10,14 -10,30 0,17 -4,30 -10,30 -5,0 -10,9 -10,20 0,11 -4,20 -10,20 -5,0 -10,8 -10,18 0,10 -9,24 -20,32 -11,8 -20,20 -20,28 0,16 -65,82 -81,82 -6,0 -24,14 -39,30 -15,17 -35,30 -44,30 -9,0 -16,5 -16,10 0,6 -13,10 -30,10 -16,0 -30,5 -30,10 0,6 -13,10 -30,10 -16,0 -30,5 -30,10 0,6 -18,10 -40,10 -22,0 -40,5 -40,10 0,6 -137,10 -390,10 h -390 z m 680,-104 c 0,-5 18,-10 40,-10 22,0 40,-4 40,-10 0,-5 9,-10 20,-10 11,0 20,-4 20,-10 0,-5 7,-10 15,-10 9,0 45,-29 80,-65 36,-35 65,-71 65,-80 0,-8 5,-15 10,-15 6,0 10,-9 10,-20 0,-11 5,-20 10,-20 6,0 10,-13 10,-30 0,-16 5,-30 10,-30 6,0 10,-22 10,-50 0,-27 5,-50 10,-50 6,0 10,-43 10,-110 0,-67 -4,-110 -10,-110 -5,0 -10,-22 -10,-50 0,-27 -4,-50 -10,-50 -5,0 -10,-13 -10,-30 0,-16 -4,-30 -10,-30 -5,0 -10,-9 -10,-20 0,-11 -4,-20 -10,-20 -5,0 -10,-8 -10,-18 0,-10 -9,-24 -20,-32 -11,-8 -20,-20 -20,-27 0,-19 -86,-103 -105,-103 -8,0 -15,-4 -15,-10 0,-5 -9,-10 -20,-10 -11,0 -20,-4 -20,-10 0,-5 -13,-10 -30,-10 -16,0 -30,-4 -30,-10 0,-6 -37,-10 -90,-10 -53,0 -90,-4 -90,-10 0,-5 -13,-10 -30,-10 -16,0 -30,5 -30,10 0,6 -13,10 -30,10 -23,0 -30,4 -30,20 0,11 -4,20 -10,20 -16,0 -14,1007 3,1025 9,11 44,14 150,15 85,0 137,-4 137,-10 z"
       id="path16" />
    <path
       d="m 10633,5485 c -20,-22 -16,-45 7,-45 11,0 20,-4 20,-10 0,-5 8,-10 18,-10 10,0 24,-9 32,-20 8,-11 22,-20 32,-20 11,0 18,-7 18,-20 0,-11 5,-20 10,-20 7,0 10,-173 10,-500 0,-327 -3,-500 -10,-500 -5,0 -10,-7 -10,-15 0,-26 -66,-85 -95,-85 -21,0 -25,-5 -25,-30 v -30 h 70 c 40,0 70,-4 70,-10 0,-15 97,-12 104,3 5,10 7,10 12,0 7,-15 104,-18 104,-3 0,6 9,10 20,10 11,0 20,-4 20,-10 0,-5 18,-10 40,-10 22,0 40,5 40,10 0,6 14,10 30,10 27,0 30,3 30,30 0,28 -2,30 -40,30 -22,0 -40,5 -40,10 0,6 -7,10 -16,10 -20,0 -44,24 -44,44 0,9 -4,16 -10,16 -7,0 -10,175 -10,505 v 506 l 45,44 c 24,25 54,45 65,45 29,0 50,23 50,54 v 26 h -267 c -219,-1 -270,-3 -280,-15 z"
       id="path17" />
    <path
       d="m 11433,5485 c -7,-8 -13,-19 -13,-25 0,-19 27,-40 52,-40 13,0 30,-9 38,-20 8,-11 20,-20 28,-20 22,0 42,-26 42,-54 0,-14 5,-26 10,-26 7,0 10,-147 10,-420 0,-273 -3,-420 -10,-420 -6,0 -10,-27 -10,-60 0,-33 -4,-60 -10,-60 -5,0 -10,-13 -10,-30 0,-22 -5,-30 -18,-30 -10,0 -24,-9 -32,-20 -8,-11 -20,-20 -28,-20 -18,0 -42,-25 -42,-44 0,-14 19,-16 140,-16 87,0 140,-4 140,-10 0,-15 97,-13 103,3 4,9 8,8 17,-3 9,-11 13,-12 17,-2 2,6 13,12 24,12 11,0 19,7 19,16 0,20 -24,44 -44,44 -9,0 -16,5 -16,10 0,6 -7,10 -15,10 -25,0 -65,46 -65,75 0,14 -4,25 -10,25 -7,0 -10,143 -10,410 0,226 2,410 5,410 11,0 55,-49 55,-60 0,-7 18,-29 40,-50 22,-21 40,-44 40,-50 0,-7 14,-25 30,-40 17,-15 30,-33 30,-40 0,-7 14,-25 30,-40 17,-15 30,-33 30,-40 0,-6 23,-33 50,-60 28,-27 50,-54 50,-60 0,-7 14,-25 30,-40 17,-15 30,-33 30,-40 0,-7 14,-25 30,-40 17,-15 30,-33 30,-40 0,-6 18,-29 40,-50 22,-21 40,-44 40,-50 0,-7 14,-25 30,-40 17,-15 30,-33 30,-40 0,-6 18,-29 40,-50 22,-21 40,-43 40,-49 0,-6 25,-36 55,-66 50,-50 59,-55 99,-55 26,0 47,-5 50,-12 5,-10 7,-10 12,0 3,6 14,12 25,12 18,0 19,14 19,540 0,353 3,540 10,540 6,0 10,20 10,45 0,35 6,52 25,70 13,14 31,25 40,25 8,0 15,5 15,10 0,6 7,10 16,10 23,0 44,25 44,54 v 26 h -236 c -241,0 -264,-4 -264,-40 0,-20 28,-40 54,-40 14,0 26,-4 26,-10 0,-5 7,-10 15,-10 9,0 31,-16 50,-35 27,-26 35,-43 35,-70 0,-19 5,-35 10,-35 6,0 10,-123 10,-350 0,-312 -2,-350 -16,-350 -18,0 -44,23 -44,40 0,6 -22,33 -50,60 -27,27 -50,54 -50,60 0,7 -13,25 -30,40 -16,15 -30,33 -30,40 0,6 -18,29 -40,50 -22,21 -40,44 -40,50 0,7 -13,25 -30,40 -16,15 -30,33 -30,40 0,6 -18,29 -40,50 -22,21 -40,44 -40,50 0,7 -13,25 -30,40 -16,15 -30,33 -30,40 0,6 -18,29 -40,50 -22,21 -40,44 -40,50 0,6 -18,29 -40,50 -22,21 -40,45 -40,52 0,7 -9,20 -20,28 -11,8 -20,20 -20,28 0,7 -16,28 -35,47 l -34,35 h -173 c -137,-1 -176,-4 -185,-15 z"
       id="path18" />
  </g>
</svg>
