<?xml version="1.0" encoding="UTF-8" standalone="no"?>
<svg
   version="1.0"
   width="1008pt"
   height="1000pt"
   viewBox="0 0 1008 1000"
   preserveAspectRatio="xMidYMid"
   id="svg2"
   xmlns="http://www.w3.org/2000/svg"
   xmlns:svg="http://www.w3.org/2000/svg">
  <defs
     id="defs2" />
  <metadata
     id="metadata1">
Created by potrace 1.16, written by Peter Selinger 2001-2019
</metadata>
  <g
     transform="matrix(0.1,0,0,-0.1,-520,1524)"
     fill="#718264"
     stroke="none"
     id="g2">
    <path
       d="m 5740,15230 c 0,-6 -27,-10 -60,-10 -33,0 -60,-4 -60,-10 0,-5 -13,-10 -30,-10 -16,0 -30,-4 -30,-10 0,-5 -13,-10 -28,-10 -16,0 -34,-8 -42,-20 -8,-11 -21,-20 -30,-20 -9,0 -22,-9 -30,-20 -8,-11 -20,-20 -28,-20 -17,0 -82,-65 -82,-82 0,-8 -9,-20 -20,-28 -11,-8 -20,-22 -20,-32 0,-10 -4,-18 -10,-18 -5,0 -10,-9 -10,-20 0,-11 -4,-20 -10,-20 -5,0 -10,-9 -10,-20 0,-11 -4,-20 -10,-20 -5,0 -10,-13 -10,-30 0,-16 -4,-30 -10,-30 -7,0 -10,-1527 -10,-4560 0,-3033 3,-4560 10,-4560 6,0 10,-13 10,-30 0,-16 5,-30 10,-30 6,0 10,-9 10,-20 0,-11 5,-20 10,-20 6,0 10,-9 10,-20 0,-11 5,-20 10,-20 6,0 10,-9 10,-20 0,-11 5,-20 10,-20 6,0 10,-7 10,-15 0,-19 104,-125 123,-125 7,0 19,-9 27,-20 8,-11 22,-20 32,-20 10,0 18,-4 18,-10 0,-5 9,-10 20,-10 11,0 20,-4 20,-10 0,-5 14,-10 30,-10 17,0 30,-4 30,-10 0,-5 23,-10 50,-10 28,0 50,-4 50,-10 0,-7 1520,-10 4540,-10 3020,0 4540,3 4540,10 0,6 23,10 50,10 28,0 50,5 50,10 0,6 9,10 20,10 11,0 20,5 20,10 0,6 9,10 20,10 11,0 20,5 20,10 0,6 9,10 20,10 11,0 20,5 20,10 0,6 7,10 15,10 20,0 165,145 165,165 0,8 5,15 10,15 6,0 10,9 10,20 0,11 5,20 10,20 6,0 10,9 10,20 0,11 5,20 10,20 6,0 10,9 10,20 0,11 5,20 10,20 6,0 10,23 10,50 0,28 5,50 10,50 7,0 10,1503 10,4490 0,2987 -3,4490 -10,4490 -5,0 -10,23 -10,50 0,28 -4,50 -10,50 -5,0 -10,14 -10,30 0,17 -4,30 -10,30 -5,0 -10,9 -10,20 0,11 -4,20 -10,20 -5,0 -10,8 -10,18 0,10 -9,24 -20,32 -11,8 -20,20 -20,27 0,17 -106,123 -123,123 -7,0 -19,9 -27,20 -8,11 -22,20 -32,20 -10,0 -18,5 -18,10 0,6 -9,10 -20,10 -11,0 -20,5 -20,10 0,6 -13,10 -30,10 -16,0 -30,5 -30,10 0,6 -22,10 -50,10 -27,0 -50,5 -50,10 0,7 -1510,10 -4510,10 -3000,0 -4510,-3 -4510,-10 z m 2080,-580 c 0,-7 783,-10 2330,-10 1547,0 2330,3 2330,10 0,6 9,10 20,10 11,0 20,-4 20,-10 0,-7 353,-10 1040,-10 687,0 1040,-3 1040,-10 0,-5 7,-10 15,-10 20,0 65,-45 65,-65 0,-8 5,-15 10,-15 7,0 10,-1442 10,-4305 V 5929 l -45,-44 c -24,-25 -51,-45 -60,-45 -8,0 -15,-4 -15,-10 0,-7 -1457,-10 -4350,-10 -2893,0 -4350,3 -4350,10 0,6 -7,10 -15,10 -20,0 -65,45 -65,65 0,8 -4,15 -10,15 -5,0 -10,14 -10,30 0,17 -4,30 -10,30 -7,0 -10,1430 -10,4270 0,2840 3,4270 10,4270 6,0 10,7 10,15 0,9 20,36 45,60 l 44,45 h 936 c 617,0 935,3 935,10 0,6 18,10 40,10 22,0 40,-4 40,-10 z"
       id="path1" />
    <path
       d="m 10160,13650 c 0,-5 -9,-10 -20,-10 -11,0 -20,-4 -20,-10 0,-5 -9,-10 -20,-10 -11,0 -20,-4 -20,-10 0,-5 -8,-10 -18,-10 -10,0 -24,-9 -32,-20 -8,-11 -22,-20 -32,-20 -10,0 -18,-4 -18,-10 0,-5 -8,-10 -18,-10 -10,0 -24,-9 -32,-20 -8,-11 -21,-20 -30,-20 -9,0 -22,-9 -30,-20 -8,-11 -22,-20 -32,-20 -10,0 -18,-4 -18,-10 0,-5 -8,-10 -18,-10 -10,0 -24,-9 -32,-20 -8,-11 -22,-20 -32,-20 -10,0 -18,-4 -18,-10 0,-5 -9,-10 -20,-10 -11,0 -20,-4 -20,-10 0,-5 -8,-10 -18,-10 -10,0 -24,-9 -32,-20 -8,-11 -22,-20 -32,-20 -10,0 -18,-4 -18,-10 0,-5 -8,-10 -18,-10 -10,0 -24,-9 -32,-20 -8,-11 -22,-20 -32,-20 -10,0 -18,-4 -18,-10 0,-5 -8,-10 -18,-10 -10,0 -24,-9 -32,-20 -8,-11 -21,-20 -30,-20 -9,0 -22,-9 -30,-20 -8,-11 -22,-20 -32,-20 -10,0 -18,-4 -18,-10 0,-5 -9,-10 -20,-10 -11,0 -20,-4 -20,-10 0,-5 -8,-10 -18,-10 -10,0 -24,-9 -32,-20 -8,-11 -21,-20 -30,-20 -9,0 -22,-9 -30,-20 -8,-11 -22,-20 -32,-20 -10,0 -18,-4 -18,-10 0,-5 -8,-10 -18,-10 -10,0 -24,-9 -32,-20 -8,-11 -22,-20 -32,-20 -10,0 -18,-4 -18,-10 0,-5 -8,-10 -18,-10 -10,0 -24,-9 -32,-20 -8,-11 -22,-20 -32,-20 -10,0 -18,-4 -18,-10 0,-5 -8,-10 -18,-10 -10,0 -24,-9 -32,-20 -8,-11 -22,-20 -32,-20 -10,0 -18,-4 -18,-10 0,-5 -8,-10 -18,-10 -10,0 -24,-9 -32,-20 -8,-11 -22,-20 -32,-20 -10,0 -18,-4 -18,-10 0,-5 -8,-10 -18,-10 -10,0 -24,-9 -32,-20 -8,-11 -22,-20 -32,-20 -10,0 -18,-4 -18,-10 0,-5 -8,-10 -18,-10 -10,0 -24,-9 -32,-20 -8,-11 -22,-20 -32,-20 -10,0 -18,-4 -18,-10 0,-5 -8,-10 -18,-10 -10,0 -24,-9 -32,-20 -8,-11 -22,-20 -32,-20 -10,0 -18,-4 -18,-10 0,-5 -8,-10 -18,-10 -10,0 -24,-9 -32,-20 -8,-11 -22,-20 -32,-20 -10,0 -18,-4 -18,-10 0,-5 -8,-10 -18,-10 -10,0 -24,-9 -32,-20 -8,-11 -22,-20 -32,-20 -10,0 -18,-4 -18,-10 0,-5 -8,-10 -18,-10 -10,0 -24,-9 -32,-20 -8,-11 -21,-20 -30,-20 -9,0 -22,-9 -30,-20 -8,-11 -22,-20 -32,-20 -10,0 -18,-4 -18,-10 0,-5 -8,-10 -18,-10 -10,0 -24,-9 -32,-20 -8,-11 -22,-20 -32,-20 -10,0 -18,-4 -18,-10 0,-5 -8,-10 -18,-10 -10,0 -24,-9 -32,-20 -8,-11 -22,-20 -32,-20 -10,0 -18,-4 -18,-10 0,-5 -8,-10 -18,-10 -10,0 -24,-9 -32,-20 -8,-11 -22,-20 -32,-20 -10,0 -18,-4 -18,-10 0,-5 -8,-10 -18,-10 -10,0 -24,-9 -32,-20 -8,-11 -21,-20 -30,-20 -9,0 -22,-9 -30,-20 -8,-11 -22,-20 -32,-20 -10,0 -18,-4 -18,-10 0,-5 -8,-10 -18,-10 -10,0 -24,-9 -32,-20 -8,-11 -22,-20 -32,-20 -10,0 -18,-4 -18,-10 0,-5 -8,-10 -18,-10 -10,0 -24,-9 -32,-20 -8,-11 -22,-20 -32,-20 -10,0 -18,-4 -18,-10 0,-5 -8,-10 -18,-10 -10,0 -24,-9 -32,-20 -8,-11 -22,-20 -32,-20 -10,0 -18,-4 -18,-10 0,-5 -8,-10 -18,-10 -10,0 -24,-9 -32,-20 -8,-11 -21,-20 -30,-20 -9,0 -22,-9 -30,-20 -8,-11 -22,-20 -32,-20 -10,0 -18,-4 -18,-10 0,-5 -9,-10 -20,-10 -11,0 -20,-4 -20,-10 0,-5 -8,-10 -18,-10 -10,0 -24,-9 -32,-20 -8,-11 -21,-20 -30,-20 -9,0 -22,-9 -30,-20 -8,-11 -20,-20 -28,-20 -18,0 -82,-66 -82,-85 0,-8 -4,-15 -10,-15 -6,0 -10,-99 -10,-276 0,-288 2,-304 44,-304 9,0 16,-4 16,-10 0,-16 3837,-14 3842,2 3,9 9,8 21,-4 16,-15 17,-147 17,-1788 0,-1522 -2,-1773 -14,-1786 -13,-12 -251,-14 -1690,-14 H 7420 v 1110 c 0,733 -3,1110 -10,1110 -5,0 -10,7 -10,16 0,8 -6,22 -14,30 -8,8 -22,14 -30,14 -9,0 -16,5 -16,10 0,6 -77,10 -210,10 -133,0 -210,-4 -210,-10 0,-5 -7,-10 -16,-10 -46,0 -44,61 -44,-1430 0,-1547 -5,-1430 64,-1430 20,0 36,-4 36,-10 0,-5 9,-10 20,-10 11,0 20,5 20,10 0,7 1099,10 3276,10 3495,0 3304,-3 3304,44 0,9 5,16 10,16 7,0 10,793 10,2360 0,1567 -3,2360 -10,2360 -5,0 -10,7 -10,15 0,19 -44,65 -62,65 -8,0 -20,9 -28,20 -8,11 -22,20 -32,20 -10,0 -18,5 -18,10 0,6 -8,10 -18,10 -10,0 -24,9 -32,20 -8,11 -22,20 -32,20 -10,0 -18,5 -18,10 0,6 -8,10 -18,10 -10,0 -24,9 -32,20 -8,11 -22,20 -32,20 -10,0 -18,5 -18,10 0,6 -8,10 -18,10 -10,0 -24,9 -32,20 -8,11 -22,20 -32,20 -10,0 -18,5 -18,10 0,6 -8,10 -18,10 -10,0 -24,9 -32,20 -8,11 -22,20 -32,20 -10,0 -18,5 -18,10 0,6 -8,10 -18,10 -10,0 -24,9 -32,20 -8,11 -22,20 -32,20 -10,0 -18,5 -18,10 0,6 -8,10 -18,10 -10,0 -24,9 -32,20 -8,11 -22,20 -32,20 -10,0 -18,5 -18,10 0,6 -8,10 -18,10 -10,0 -24,9 -32,20 -8,11 -22,20 -32,20 -10,0 -18,5 -18,10 0,6 -8,10 -18,10 -10,0 -24,9 -32,20 -8,11 -22,20 -32,20 -10,0 -18,5 -18,10 0,6 -8,10 -18,10 -10,0 -24,9 -32,20 -8,11 -22,20 -32,20 -10,0 -18,5 -18,10 0,6 -8,10 -18,10 -10,0 -24,9 -32,20 -8,11 -22,20 -32,20 -10,0 -18,5 -18,10 0,6 -8,10 -18,10 -10,0 -24,9 -32,20 -8,11 -22,20 -32,20 -10,0 -18,5 -18,10 0,6 -8,10 -18,10 -10,0 -24,9 -32,20 -8,11 -22,20 -32,20 -10,0 -18,5 -18,10 0,6 -8,10 -18,10 -10,0 -24,9 -32,20 -8,11 -22,20 -32,20 -10,0 -18,5 -18,10 0,6 -8,10 -18,10 -10,0 -24,9 -32,20 -8,11 -22,20 -32,20 -10,0 -18,5 -18,10 0,6 -8,10 -18,10 -10,0 -24,9 -32,20 -8,11 -21,20 -30,20 -9,0 -22,9 -30,20 -8,11 -22,20 -32,20 -10,0 -18,5 -18,10 0,6 -8,10 -18,10 -10,0 -24,9 -32,20 -8,11 -22,20 -32,20 -10,0 -18,5 -18,10 0,6 -9,10 -20,10 -11,0 -20,5 -20,10 0,6 -8,10 -18,10 -10,0 -24,9 -32,20 -8,11 -21,20 -30,20 -9,0 -22,9 -30,20 -8,11 -22,20 -32,20 -10,0 -18,5 -18,10 0,6 -8,10 -18,10 -10,0 -24,9 -32,20 -8,11 -22,20 -32,20 -10,0 -18,5 -18,10 0,6 -8,10 -18,10 -10,0 -24,9 -32,20 -8,11 -22,20 -32,20 -10,0 -18,5 -18,10 0,6 -9,10 -20,10 -11,0 -20,5 -20,10 0,6 -8,10 -18,10 -10,0 -24,9 -32,20 -8,11 -21,20 -30,20 -9,0 -22,9 -30,20 -8,11 -22,20 -32,20 -10,0 -18,5 -18,10 0,6 -8,10 -18,10 -10,0 -24,9 -32,20 -8,11 -22,20 -32,20 -10,0 -18,5 -18,10 0,6 -8,10 -18,10 -10,0 -24,9 -32,20 -8,11 -22,20 -32,20 -10,0 -18,5 -18,10 0,6 -9,10 -20,10 -11,0 -20,5 -20,10 0,6 -8,10 -18,10 -10,0 -24,9 -32,20 -8,11 -21,20 -30,20 -9,0 -22,9 -30,20 -8,11 -22,20 -32,20 -10,0 -18,5 -18,10 0,6 -8,10 -18,10 -10,0 -24,9 -32,20 -8,11 -22,20 -32,20 -10,0 -18,5 -18,10 0,6 -8,10 -18,10 -10,0 -24,9 -32,20 -8,11 -22,20 -32,20 -10,0 -18,5 -18,10 0,6 -8,10 -18,10 -10,0 -24,9 -32,20 -8,11 -22,20 -32,20 -10,0 -18,5 -18,10 0,6 -8,10 -18,10 -10,0 -24,9 -32,20 -8,11 -21,20 -30,20 -9,0 -22,9 -30,20 -8,11 -22,20 -32,20 -10,0 -18,5 -18,10 0,6 -33,10 -80,10 -47,0 -80,-4 -80,-10 z m 110,-650 c 8,-11 22,-20 32,-20 10,0 18,-4 18,-10 0,-5 8,-10 18,-10 10,0 24,-9 32,-20 8,-11 21,-20 30,-20 9,0 22,-9 30,-20 8,-11 22,-20 32,-20 10,0 18,-4 18,-10 0,-5 8,-10 18,-10 10,0 24,-9 32,-20 8,-11 22,-20 32,-20 10,0 18,-4 18,-10 0,-5 8,-10 18,-10 10,0 24,-9 32,-20 8,-11 22,-20 32,-20 10,0 18,-4 18,-10 0,-5 8,-10 18,-10 10,0 24,-9 32,-20 8,-11 22,-20 32,-20 10,0 18,-4 18,-10 0,-5 8,-10 18,-10 10,0 24,-9 32,-20 8,-11 22,-20 32,-20 10,0 18,-4 18,-10 0,-5 8,-10 18,-10 10,0 24,-9 32,-20 8,-11 21,-20 30,-20 9,0 22,-9 30,-20 8,-11 22,-20 32,-20 10,0 18,-4 18,-10 0,-5 8,-10 18,-10 10,0 24,-9 32,-20 8,-11 22,-20 32,-20 10,0 18,-4 18,-10 0,-5 8,-10 18,-10 10,0 24,-9 32,-20 8,-11 22,-20 32,-20 10,0 18,-4 18,-10 0,-5 9,-10 20,-10 11,0 20,-4 20,-10 0,-5 8,-10 18,-10 10,0 24,-9 32,-20 8,-11 21,-20 30,-20 9,0 22,-9 30,-20 8,-11 22,-20 32,-20 10,0 18,-4 18,-10 0,-5 8,-10 18,-10 10,0 24,-9 32,-20 8,-11 22,-20 32,-20 10,0 18,-4 18,-10 0,-5 8,-10 18,-10 10,0 24,-9 32,-20 8,-11 22,-20 32,-20 10,0 18,-4 18,-10 0,-5 8,-10 18,-10 10,0 24,-9 32,-20 8,-11 22,-20 32,-20 10,0 18,-4 18,-10 0,-5 8,-10 18,-10 10,0 24,-9 32,-20 8,-11 22,-20 32,-20 10,0 18,-4 18,-10 0,-5 8,-10 18,-10 10,0 24,-9 32,-20 8,-11 22,-20 32,-20 10,0 18,-4 18,-10 0,-5 8,-10 18,-10 10,0 24,-9 32,-20 8,-11 21,-20 30,-20 9,0 22,-9 30,-20 8,-11 22,-20 32,-20 10,0 18,-4 18,-10 0,-5 9,-10 20,-10 11,0 20,-4 20,-10 0,-5 8,-10 18,-10 10,0 24,-9 32,-20 8,-11 21,-20 30,-20 9,0 22,-9 30,-20 8,-11 22,-20 32,-20 10,0 18,-4 18,-10 0,-5 8,-10 18,-10 10,0 24,-9 32,-20 8,-11 22,-20 32,-20 10,0 18,-4 18,-10 0,-5 8,-10 18,-10 10,0 24,-9 32,-20 8,-11 21,-20 30,-20 9,0 22,-9 30,-20 8,-11 22,-20 32,-20 10,0 18,-4 18,-10 0,-5 8,-10 18,-10 10,0 24,-9 32,-20 8,-11 22,-20 32,-20 10,0 18,-4 18,-10 0,-5 8,-10 18,-10 10,0 24,-9 32,-20 8,-11 22,-20 32,-20 10,0 18,-4 18,-10 0,-5 9,-10 20,-10 11,0 20,-4 20,-10 0,-5 8,-10 18,-10 10,0 24,-9 32,-20 8,-11 21,-20 30,-20 9,0 22,-9 30,-20 8,-11 22,-20 32,-20 10,0 18,-4 18,-10 0,-5 9,-10 20,-10 11,0 20,-4 20,-10 0,-5 9,-10 20,-10 20,0 20,-7 20,-806 0,-685 -2,-808 -14,-820 -12,-12 -138,-14 -840,-14 h -826 v 915 916 l -35,34 c -21,22 -44,35 -60,35 -14,0 -25,5 -25,10 0,7 -347,10 -1020,10 -673,0 -1020,-3 -1020,-10 0,-7 -223,-10 -650,-10 -427,0 -650,3 -650,10 0,6 9,10 20,10 11,0 20,5 20,10 0,6 9,10 20,10 11,0 20,5 20,10 0,6 8,10 18,10 10,0 24,9 32,20 8,11 22,20 32,20 10,0 18,5 18,10 0,6 8,10 18,10 10,0 24,9 32,20 8,11 21,20 30,20 9,0 22,9 30,20 8,11 22,20 32,20 10,0 18,5 18,10 0,6 8,10 18,10 10,0 24,9 32,20 8,11 22,20 32,20 10,0 18,5 18,10 0,6 8,10 18,10 10,0 24,9 32,20 8,11 22,20 32,20 10,0 18,5 18,10 0,6 8,10 18,10 10,0 24,9 32,20 8,11 22,20 32,20 10,0 18,5 18,10 0,6 8,10 18,10 10,0 24,9 32,20 8,11 22,20 32,20 10,0 18,5 18,10 0,6 8,10 18,10 10,0 24,9 32,20 8,11 21,20 30,20 9,0 22,9 30,20 8,11 22,20 32,20 10,0 18,5 18,10 0,6 8,10 18,10 10,0 24,9 32,20 8,11 22,20 32,20 10,0 18,5 18,10 0,6 8,10 18,10 10,0 24,9 32,20 8,11 22,20 32,20 10,0 18,5 18,10 0,6 8,10 18,10 10,0 24,9 32,20 8,11 22,20 32,20 10,0 18,5 18,10 0,6 8,10 18,10 10,0 24,9 32,20 8,11 22,20 32,20 10,0 18,5 18,10 0,6 8,10 18,10 10,0 24,9 32,20 8,11 21,20 30,20 9,0 22,9 30,20 8,11 22,20 32,20 10,0 18,5 18,10 0,6 8,10 18,10 10,0 24,9 32,20 8,11 22,20 32,20 10,0 18,5 18,10 0,6 8,10 18,10 10,0 24,9 32,20 8,11 22,20 32,20 10,0 18,5 18,10 0,6 8,10 18,10 10,0 24,9 32,20 8,11 22,20 32,20 10,0 18,5 18,10 0,6 8,10 18,10 10,0 24,9 32,20 8,11 22,20 32,20 10,0 18,5 18,10 0,6 8,10 18,10 10,0 24,9 32,20 8,11 22,20 32,20 10,0 18,5 18,10 0,6 8,10 18,10 10,0 24,9 32,20 8,11 22,20 32,20 10,0 18,5 18,10 0,6 8,10 18,10 10,0 24,9 32,20 8,11 22,20 32,20 10,0 18,5 18,10 0,6 8,10 18,10 10,0 24,9 32,20 8,11 22,20 32,20 10,0 18,5 18,10 0,6 8,10 18,10 10,0 24,9 32,20 8,11 21,20 30,20 9,0 22,-9 30,-20 z m 2770,-4679 c 0,-630 -3,-801 -12,-805 -10,-5 -10,-7 0,-12 16,-8 15,-32 -2,-50 -12,-12 -138,-14 -840,-14 h -826 v 840 840 h 840 840 z"
       id="path2" />
  </g>
</svg>
